<svg xmlns="http://www.w3.org/2000/svg" viewBox="0 0 512 512"><title>assembler</title><rect width="512" height="512" rx="128" fill="#fff"/><path d="M32,328.32,77.83,141.44h48.64L172.8,328.32H133.64l-9-42.24H80.13l-9,42.24Zm54.53-73H118l-9-45.06q-1.8-9.72-3.71-19.33t-3-15q-1,5.37-2.68,14.85T96,210.05Z" fill="#5da545"/><path d="M256,330.88q-19.71,0-34.3-6.66t-22.53-18.69q-7.93-12-7.94-28.41h38.4a17.75,17.75,0,0,0,7.3,15q7.29,5.52,19.84,5.51,12,0,18.81-5.38t6.79-14.84a20.77,20.77,0,0,0-5.12-14.09q-5.13-5.88-14.34-7.93L244,251q-23.81-5.64-37-20.87t-13.19-37.25q0-16.38,7.55-28.54a50.09,50.09,0,0,1,21.38-18.82q13.83-6.65,32.77-6.65,28.67,0,45.44,14.21t16.77,38.27H279.3q0-9-6.27-14.08t-18-5.12q-11,0-16.9,5t-5.89,14.21A21.24,21.24,0,0,0,237,205.31q4.72,5.76,13.44,7.81l20,4.61q24.82,5.63,37.63,20.35t12.8,37.5q0,16.4-8.06,28.93A53.55,53.55,0,0,1,290.18,324Q275.7,330.87,256,330.88Z" fill="#5da545"/><path d="M343.55,328.32V141.44h43.26L404,200.32q2.81,9.21,4.22,16.13c.94,4.6,1.49,7.85,1.66,9.72.17-1.87.73-5.12,1.67-9.72s2.26-10,4-16.13l16.89-58.88h43.27V328.32H440.58v-51.2q0-14.08.63-29.57t1.67-30.85q1-15.36,2.3-28.8t2.31-23.42L426,249H393.47l-22.53-84.48q1.28,9.47,2.56,22.65t2.43,28.42q1.15,15.24,1.92,31.1t.77,30.47v51.2Z" fill="#5da545"/></svg>