<svg xmlns="http://www.w3.org/2000/svg" viewBox="0 0 512 512"><title>cplusplus</title><rect width="512" height="512" rx="128" fill="#fff"/><path d="M103.68,330.88q-18.95,0-33-7a52.82,52.82,0,0,1-21.89-19.71Q41,291.46,41,274.56V195.2q0-17.14,7.81-29.7A53.08,53.08,0,0,1,70.7,145.92q14.07-7,33-7,18.69,0,32.64,7A53.21,53.21,0,0,1,158.1,165.5q7.82,12.56,7.81,29.7h-38.4q0-11.26-6.27-17.15t-17.79-5.89q-11.52,0-17.79,5.89t-6.3,17.15v79.36q0,11,6.28,17t17.79,6q11.52,0,17.79-6t6.27-17h38.4q0,16.89-7.81,29.57a53,53,0,0,1-21.76,19.71Q122.37,330.88,103.68,330.88Z" fill="#5da545"/><path d="M236.8,305.28V261.76H193.28V225.92H236.8V182.4h38.4v43.52h43.52v35.84H275.2v43.52Z" fill="#5da545"/><path d="M390.4,305.28V261.76H346.88V225.92H390.4V182.4h38.4v43.52h43.52v35.84H428.8v43.52Z" fill="#5da545"/></svg>