<svg xmlns="http://www.w3.org/2000/svg" viewBox="0 0 512 512"><title>csharp</title><rect width="512" height="512" rx="128" fill="#fff"/><path d="M180.48,330.88q-18.94,0-33-7a52.82,52.82,0,0,1-21.89-19.71q-7.82-12.68-7.81-29.57V195.2q0-17.14,7.81-29.7a53,53,0,0,1,21.89-19.58q14.07-7,33-7,18.69,0,32.64,7a53.28,53.28,0,0,1,21.76,19.58q7.81,12.56,7.81,29.7h-38.4q0-11.26-6.27-17.15t-17.79-5.89q-11.52,0-17.8,5.89t-6.27,17.15v79.36q0,11,6.27,17t17.8,6q11.52,0,17.79-6t6.27-17h38.4q0,16.89-7.81,29.57a53,53,0,0,1-21.76,19.71Q199.17,330.88,180.48,330.88Z" fill="#5da545"/><path d="M273.92,328.32l7.42-43.52H261.12V259.2H285.7l8.44-48.64H268.8V185h29.7l7.42-43.52H332.8L325.38,185h32l7.42-43.52h26.88L384.26,185h20.22v25.6H379.9l-8.44,48.64H396.8v25.6H367.1l-7.42,43.52H332.8l7.42-43.52h-32l-7.42,43.52Zm38.66-69.12h32L353,210.56H321Z" fill="#5da545"/></svg>