<svg xmlns="http://www.w3.org/2000/svg" viewBox="0 0 512 512"><title>java</title><rect width="512" height="512" rx="128" fill="#fff"/><path d="M60.7,330.63q-24.15,0-38.32-13.13T8.2,282.12H39.7q0,9.66,5.67,15.43t15.33,5.78q9.66,0,15.33-5.57t5.67-15.22V204.42H47.05V175H113.2V282.54q0,22.26-14.07,35.17T60.7,330.63Z" fill="#5da545"/><path d="M135.25,328.32,172.84,175h39.9l38,153.3H218.62l-7.35-34.65H174.73l-7.35,34.65ZM180,268.47h25.83l-7.35-37q-1.47-8-3-15.86T193,203.37q-.84,4.41-2.2,12.18t-3.05,15.75Z" fill="#5da545"/><path d="M299.26,328.32l-38-153.3H293.8L315,271.83q1,5,2.62,12.81T320,297.87q.84-5.46,2.1-13.23t2.31-13L345,175h31.71L339.12,328.3Z" fill="#5da545"/><path d="M387.25,328.32,424.84,175h39.9l38,153.3H470.62l-7.35-34.65H426.73l-7.35,34.65ZM432,268.47h25.83l-7.35-37q-1.47-8-3-15.86T445,203.37q-.84,4.41-2.21,12.18t-3,15.75Z" fill="#5da545"/></svg>