<svg xmlns="http://www.w3.org/2000/svg" viewBox="0 0 512 512"><title>pascal</title><rect width="512" height="512" rx="128" fill="#fff"/><path d="M42.5,328.32V141.44h63.74q19.71,0,34.44,7.42a54.88,54.88,0,0,1,22.78,20.74q8.07,13.31,8.06,31.23,0,17.67-8.19,31.1a55.58,55.58,0,0,1-22.78,20.87q-14.6,7.43-34.31,7.42H80.9v68.1ZM80.9,225.66h25.34q12.3,0,19.59-6.78t7.29-18q0-11.26-7.29-18T106.24,176H80.9Z" fill="#5da545"/><path d="M185.6,328.32l45.82-186.88h48.65L326.4,328.32H287.23l-9-42.24h-44.5l-9,42.24Zm54.53-73h31.49l-9-45.06q-1.8-9.72-3.71-19.33T256,176q-1,5.37-2.69,14.85t-3.71,19.2Z" fill="#5da545"/><path d="M409.6,330.88q-19.71,0-34.31-6.66t-22.52-18.69q-7.95-12-7.94-28.41h38.4a17.73,17.73,0,0,0,7.3,15q7.29,5.52,19.84,5.51,12,0,18.81-5.38T436,277.38a20.77,20.77,0,0,0-5.12-14.09q-5.13-5.88-14.34-7.93l-19-4.36q-23.81-5.64-37-20.87t-13.19-37.25q0-16.38,7.55-28.54a50,50,0,0,1,21.38-18.82q13.83-6.65,32.77-6.65,28.67,0,45.44,14.21t16.76,38.27h-38.4q0-9-6.27-14.08t-18-5.12q-11,0-16.9,5t-5.89,14.21a21.24,21.24,0,0,0,4.74,13.95q4.72,5.76,13.44,7.81l20,4.61q24.84,5.63,37.64,20.35t12.8,37.5q0,16.4-8.07,28.93A53.47,53.47,0,0,1,443.77,324Q429.31,330.87,409.6,330.88Z" fill="#5da545"/></svg>