<svg xmlns="http://www.w3.org/2000/svg" viewBox="0 0 24 14"><title>vk</title><path d="M13.16,19a.79.79,0,0,0,.85-.91c0-1.92.72-2.95,2.06-1.61C17.56,18,17.87,19,19.67,19h3.21c.8,0,1.12-.26,1.12-.66,0-.87-1.42-2.39-2.62-3.51-1.69-1.56-1.77-1.6-.32-3.48C22.86,9,25.22,6,23.14,6h-4c-.77,0-.82.44-1.1,1.08-1,2.35-2.88,5.39-3.6,4.93S14,9.6,14.1,6.74c0-.75,0-1.27-1.14-1.54A8.36,8.36,0,0,0,11.15,5c-2.28,0-3.84,1-3,1.12,1.57.29,1.42,3.69,1.05,5.16-.64,2.55-3-2-4-4.31C5,6.43,4.9,6,4,6H.79C.29,6,0,6.16,0,6.52c0,.6,3,6.72,5.79,9.77S11.27,19,13.16,19Z" transform="translate(0 -5)"/></svg>